<svg xmlns="http://www.w3.org/2000/svg" width="128" height="135.001" viewBox="0 0 128 135.001"><path fill="#fff" d="M83 93.5c0-2.712-1.312-3.542 3.25-7.268 1.303-1.063-2.75-2.337-2.938-3.962-.232-2.01 2.75-2.812 4.188-3.788 1.263-.856-.71-4.626-.75-5.5-.062-1.337.484-1.69-.375-2.625-2.625-2.857-2.784.352-8.312 1.58-2.25.5-4.126-.61-8.585-2.386-2.93-1.165 1.925-29.32-1.978-31.093-1.375-.625-2.125-2.75-3-2.625s-3.5 2.63-4.625 3.004-1.25-.25-2.625.375-4.625 7.5-7 8.75-6.375.5-8.375 1.25-4.25 6.626-5.25 11S36.1 76.337 36 78.588c-.062 1.413-.688.35 2 2.25 3.145 2.223 3.625 5.788 3.5 12.663v5.084l41.5.04V93.5z"/><path d="M64.5 35.833c-.875.125-3.5 2.63-4.625 3.004-.485.162-.794.12-1.094.076-.395-.058-.777-.115-1.53.3-.75.412-3.438 4.912-4.438 6.1L53 54.188l5.708.23c2.875-.626 10.6-.065 11.134-.056.832-.167 6.658-1.024 9.283-.9s11.212.637 11.212-.113-4.837-7.137-8.587-10.137-12.875-4.13-14.25-4.754c-1.336-.608-2.082-2.632-2.926-2.63-.025-.002-.05 0-.074.003"/><linearGradient id="a" gradientUnits="userSpaceOnUse" x1=".082" y1="134.784" x2=".582" y2="134.784" gradientTransform="matrix(66.514 -24.209 -24.209 -66.514 3309.817 9019.143)"><stop offset="0" stop-color="#fff"/><stop offset=".04" stop-color="#FFFEFD"/><stop offset=".055" stop-color="#FFF9F6"/><stop offset=".065" stop-color="#FEF0E9"/><stop offset=".071" stop-color="#FDE7DC"/><stop offset=".097" stop-color="#F8C3AB"/><stop offset=".129" stop-color="#F19675"/><stop offset=".161" stop-color="#EB6D4C"/><stop offset=".192" stop-color="#E74B32"/><stop offset=".221" stop-color="#E42D24"/><stop offset=".247" stop-color="#E30C1C"/><stop offset=".269" stop-color="#E2001A"/><stop offset="1" stop-color="#E2001A"/></linearGradient><path fill="url(#a)" d="M46.838 38.002l39.11-14.235L96.31 52.242l-39.11 14.235z"/><path stroke="#000" stroke-width="4" d="M59.875 53.962c.375.75.75 9.875.625 13.625S58.875 85.125 59.875 87c.843 1.58 3.5 3 5 3s3.875-1.375 5-2.75-.125-15.663-.625-19.788.25-13.125.75-13.75 6.71-.503 9.334-.378 10.172.288 10.332 0c.785-1.414-2.14-5.588-9.215-10.278-5.022-3.33-11.575-3.973-12.95-4.598s-2.125-2.75-3-2.625-3.5 2.63-4.625 3.004-1.25-.25-2.625.375-4.625 7.5-7 8.75-6.375.5-8.375 1.25-4.25 6.625-5.25 11S36.1 76.336 36 78.587c-.062 1.413-.688.35 2 2.25 3.145 2.223 4.625 6 4.5 12.875M72.66 71.91c1.828.955 5.34 1.322 7.215.072s4.77-3.703 6.5-1.625c.812.976.312 1.288.375 2.625.04.874 2.013 4.644.75 5.5-1.438.976-4.42 1.777-4.188 3.788.188 1.625 4.24 2.898 2.938 3.962-4.562 3.726-4.25 4.788-4.25 7.5M69.25 67.462c-.5-4.125.25-13.125.75-13.75s5.914-.364 9.334-.378" fill="none"/><path clip-path="url(#SVGID_9_)" stroke="#000" stroke-width="4" d="M59.875 53.962c.375.75.75 9.875.625 13.625" fill="none"/></svg>