<svg version="1.1" id="Layer_1" xmlns="http://www.w3.org/2000/svg" xmlns:xlink="http://www.w3.org/1999/xlink" x="0px" y="0px"
	 width="128px" height="135.001px" viewBox="0 0 128 135.001" enable-background="new 0 0 128 135.001" xml:space="preserve">

	<path  fill="#FFFFFF" d="M83,93.5c0-2.712-1.312-3.542,3.25-7.268c1.303-1.063-2.75-2.337-2.938-3.962
		c-0.232-2.011,2.75-2.812,4.188-3.788c1.263-0.856-0.709-4.626-0.75-5.5c-0.062-1.337,0.484-1.689-0.375-2.625
		c-2.625-2.857-2.784,0.352-8.312,1.58c-2.25,0.5-4.126-0.61-8.585-2.386c-2.929-1.166,1.925-29.32-1.978-31.094
		c-1.375-0.625-2.125-2.75-3-2.625s-3.5,2.629-4.625,3.004s-1.25-0.25-2.625,0.375s-4.625,7.5-7,8.75s-6.375,0.5-8.375,1.25
		s-4.25,6.625-5.25,11S36.1,76.336,36,78.587c-0.062,1.413-0.688,0.351,2,2.25c3.145,2.223,3.625,5.788,3.5,12.663v5.084L83,98.625
		V93.5z"/>

		<path id="SVGID_3_" d="M64.5,35.833c-0.875,0.125-3.5,2.629-4.625,3.004c-0.485,0.162-0.794,0.119-1.094,0.076
			c-0.396-0.058-0.778-0.115-1.531,0.299c-0.75,0.413-3.438,4.913-4.438,6.101L53,54.188l5.708,0.229
			c2.875-0.625,10.599-0.064,11.134-0.055c0.832-0.167,6.658-1.024,9.283-0.899s11.212,0.636,11.212-0.114
			c0-0.75-4.837-7.136-8.587-10.136s-12.875-4.129-14.25-4.754c-1.336-0.607-2.082-2.631-2.926-2.63
			C64.549,35.828,64.524,35.829,64.5,35.833"/>

	
		<linearGradient id="SVGID_5_" gradientUnits="userSpaceOnUse" x1="0.082" y1="134.7842" x2="0.582" y2="134.7842" gradientTransform="matrix(66.514 -24.2091 -24.2091 -66.514 3309.8169 9019.1426)">
		<stop  offset="0" style="stop-color:#FFFFFF"/>
		<stop  offset="0.0401" style="stop-color:#FFFEFD"/>
		<stop  offset="0.0546" style="stop-color:#FFF9F6"/>
		<stop  offset="0.0648" style="stop-color:#FEF0E9"/>
		<stop  offset="0.0714" style="stop-color:#FDE7DC"/>
		<stop  offset="0.0966" style="stop-color:#F8C3AB"/>
		<stop  offset="0.1292" style="stop-color:#F19675"/>
		<stop  offset="0.1613" style="stop-color:#EB6D4C"/>
		<stop  offset="0.1919" style="stop-color:#E74B32"/>
		<stop  offset="0.2209" style="stop-color:#E42D24"/>
		<stop  offset="0.2474" style="stop-color:#E30C1C"/>
		<stop  offset="0.2692" style="stop-color:#E2001A"/>
		<stop  offset="1" style="stop-color:#E2001A"/>
	</linearGradient>
	<polygon  fill="url(#SVGID_5_)" points="46.838,38.002 85.947,23.767 96.312,52.242 57.202,66.477 	"/>

	<path  fill="none" stroke="#000000" stroke-width="4" d="M59.875,53.962
		c0.375,0.75,0.75,9.875,0.625,13.625S58.875,85.125,59.875,87c0.843,1.579,3.5,3,5,3s3.875-1.375,5-2.75S69.75,71.587,69.25,67.462
		S69.5,54.337,70,53.712s6.709-0.503,9.334-0.378s10.172,0.288,10.332,0c0.785-1.414-2.141-5.588-9.215-10.278
		c-5.023-3.329-11.576-3.973-12.951-4.598s-2.125-2.75-3-2.625s-3.5,2.629-4.625,3.004s-1.25-0.25-2.625,0.375s-4.625,7.5-7,8.75
		s-6.375,0.5-8.375,1.25s-4.25,6.625-5.25,11S36.1,76.336,36,78.587c-0.062,1.413-0.688,0.351,2,2.25
		c3.145,2.223,4.625,6,4.5,12.875"/>
	<path  fill="none" stroke="#000000" stroke-width="4" d="M72.66,71.911
		c1.828,0.954,5.34,1.321,7.215,0.071s4.77-3.703,6.5-1.625c0.812,0.976,0.312,1.288,0.375,2.625c0.041,0.874,2.013,4.644,0.75,5.5
		c-1.438,0.976-4.42,1.777-4.188,3.788c0.188,1.625,4.24,2.898,2.938,3.962c-4.562,3.726-4.25,4.788-4.25,7.5"/>

	<path  fill="none" stroke="#000000" stroke-width="4" d="M69.25,67.462
		c-0.5-4.125,0.25-13.125,0.75-13.75s5.914-0.364,9.334-0.378"/>
	<path clip-path="url(#SVGID_9_)" fill="none" stroke="#000000" stroke-width="4" d="M59.875,53.962
		c0.375,0.75,0.75,9.875,0.625,13.625"/>

</svg>
